<?xml version="1.0" standalone="no"?>
<!DOCTYPE svg PUBLIC "-//W3C//DTD SVG 20010904//EN"
 "http://www.w3.org/TR/2001/REC-SVG-20010904/DTD/svg10.dtd">
<svg version="1.0" xmlns="http://www.w3.org/2000/svg"
 width="500.000000pt" height="500.000000pt" viewBox="0 0 500.000000 500.000000"
 preserveAspectRatio="xMidYMid meet">

<g transform="translate(0.000000,500.000000) scale(0.100000,-0.100000)"
fill="#000000" stroke="none">
<path d="M1252 4781 c-139 -176 -328 -707 -403 -1136 -40 -229 -38 -530 7
-832 14 -100 14 -103 -7 -145 -93 -182 -212 -640 -259 -998 -17 -134 -42 -499
-35 -508 2 -2 15 34 30 80 68 202 136 370 173 425 50 73 142 159 210 196 53
29 161 57 223 57 l35 0 -35 102 c-35 100 -35 107 -36 258 0 143 2 160 27 228
109 300 408 512 719 512 191 0 336 -56 457 -175 39 -40 72 -72 72 -71 0 2 -17
43 -39 92 -44 101 -71 202 -71 261 0 22 -6 45 -12 50 -21 17 -170 70 -216 78
-35 6 -41 9 -31 21 6 8 15 14 20 14 4 0 52 20 105 45 53 25 101 45 107 45 24
1 -19 17 -59 24 -47 7 -133 -7 -176 -28 -45 -23 -33 -3 45 70 83 80 161 133
249 173 123 55 122 52 8 46 l-105 -4 -30 71 c-78 185 -257 482 -407 670 -172
218 -415 428 -494 428 -28 0 -40 -8 -72 -49z m128 -88 c119 -83 306 -416 406
-723 22 -69 27 -104 28 -190 1 -99 -1 -107 -27 -146 -32 -47 -49 -57 -155 -84
-160 -42 -281 -106 -388 -203 -64 -59 -153 -183 -192 -268 -32 -71 -82 -225
-82 -253 0 -14 -4 -26 -10 -26 -9 0 -12 11 -42 130 -21 87 -18 498 5 625 96
527 245 994 357 1115 40 44 63 49 100 23z"/>
<path d="M1805 2596 c-68 -30 -116 -103 -135 -205 -20 -109 6 -192 72 -228 48
-26 201 -26 244 1 44 27 66 69 71 140 10 120 -47 245 -130 285 -50 24 -79 26
-122 7z m76 -65 c37 -38 39 -88 6 -127 -50 -58 -137 -18 -137 62 0 41 45 94
80 94 12 0 35 -13 51 -29z"/>
<path d="M3095 2594 c-51 -28 -76 -57 -106 -119 -24 -51 -29 -73 -29 -140 0
-146 45 -190 195 -190 151 0 197 43 196 187 0 73 -4 90 -33 147 -18 36 -49 78
-68 93 -45 35 -113 45 -155 22z m64 -49 c33 -17 41 -33 41 -84 0 -86 -107
-115 -146 -40 -26 52 -5 113 46 132 24 9 29 8 59 -8z"/>
<path d="M2355 1630 c-75 -14 -128 -37 -161 -71 -26 -27 -29 -37 -29 -97 1
-103 35 -153 135 -200 46 -22 73 -27 168 -30 170 -7 272 19 334 85 37 39 48
73 48 148 0 53 -4 68 -25 94 -44 52 -119 72 -280 76 -77 2 -162 0 -190 -5z"/>
<path d="M1820 1427 c0 -27 38 -120 69 -168 15 -25 36 -80 45 -123 10 -43 28
-108 40 -144 30 -87 97 -232 107 -232 4 0 9 60 11 134 2 74 5 137 8 140 3 2
37 -11 75 -30 107 -52 182 -68 320 -68 141 0 269 30 395 91 41 21 79 39 84 41
10 5 -2 -474 -15 -547 -5 -30 -7 -56 -5 -58 7 -7 196 28 311 57 106 27 264 80
295 100 11 7 16 33 18 100 2 49 0 90 -4 90 -4 0 -72 -16 -151 -35 -139 -35
-432 -89 -440 -82 -2 2 19 46 46 98 59 112 104 250 127 385 9 55 25 116 36
137 22 44 39 87 34 87 -2 0 -19 -24 -38 -52 -113 -168 -302 -292 -499 -329
-91 -16 -265 -13 -346 7 -78 19 -188 68 -252 111 -70 49 -170 153 -222 232
-27 40 -49 66 -49 58z"/>
<path d="M1445 820 c-4 -6 -9 -43 -12 -83 l-5 -72 39 -22 c94 -53 329 -123
528 -157 50 -9 93 -16 97 -16 4 0 2 15 -3 32 -5 18 -9 65 -9 104 l0 70 -116
18 c-137 20 -320 66 -424 107 -84 33 -86 33 -95 19z"/>
</g>
</svg>
